<svg width="33" height="33" viewBox="0 0 33 33" fill="none" xmlns="http://www.w3.org/2000/svg">
<path d="M31.3047 13.3377L18.1341 13.337C17.5525 13.337 17.0811 13.8084 17.0811 14.39V18.5974C17.0811 19.1789 17.5525 19.6503 18.134 19.6503H25.5509C24.7387 21.7581 23.2229 23.5232 21.2889 24.6448L24.4515 30.1194C29.5246 27.1854 32.5239 22.0374 32.5239 16.2746C32.5239 15.4541 32.4634 14.8675 32.3424 14.207C32.2505 13.7052 31.8148 13.3377 31.3047 13.3377Z" fill="#167EE6"/>
<path d="M16.3789 25.972C12.7493 25.972 9.58059 23.9889 7.87877 21.0542L2.4043 24.2097C5.19022 29.0381 10.4091 32.2896 16.3789 32.2896C19.3075 32.2896 22.0709 31.5011 24.4513 30.1269V30.1194L21.2888 24.6447C19.8422 25.4837 18.1682 25.972 16.3789 25.972Z" fill="#12B347"/>
<path d="M6.55191 16.1448C6.55191 14.3557 7.04016 12.6819 7.87899 11.2353L2.40452 8.0799C1.02282 10.4529 0.234375 13.2087 0.234375 16.1448C0.234375 19.0809 1.02282 21.8367 2.40452 24.2097L7.87899 21.0542C7.04016 19.6077 6.55191 17.9339 6.55191 16.1448Z" fill="#FFD500"/>
<path d="M16.3789 6.31753C18.7458 6.31753 20.92 7.15857 22.6181 8.55756C23.0371 8.90265 23.646 8.87774 24.0297 8.49399L27.0108 5.51288C27.4462 5.07747 27.4152 4.36477 26.9501 3.96127C24.1049 1.49295 20.403 0 16.3789 0C10.4091 0 5.19022 3.25147 2.4043 8.0799L7.87877 11.2353C9.58059 8.30069 12.7493 6.31753 16.3789 6.31753Z" fill="#FF4B26"/>
<path d="M24.4513 30.1269V30.1194L21.2888 24.6447C19.8422 25.4837 18.1683 25.972 16.3789 25.972V32.2896C19.3075 32.2896 22.071 31.5011 24.4513 30.1269Z" fill="#0F993E"/>
<path d="M22.6181 8.55756C23.0371 8.90265 23.646 8.87774 24.0297 8.49399L27.0108 5.51288C27.4462 5.07747 27.4151 4.36477 26.9501 3.96127C24.1049 1.49289 20.4029 0 16.3789 0V6.31753C18.7458 6.31753 20.9199 7.15857 22.6181 8.55756Z" fill="#D93F21"/>
</svg>
