<svg width="127" height="28" viewBox="0 0 127 28" fill="none" xmlns="http://www.w3.org/2000/svg">
<path d="M44.2734 20.9137H40.9972V19.394C40.635 19.9143 40.1497 20.3369 39.5845 20.6241C39.0192 20.9113 38.3917 21.054 37.7579 21.0397C35.285 21.0397 33.6198 19.255 33.6198 16.2632V9.72596H36.8764V15.8051C36.8764 17.3249 37.7015 18.1716 38.926 18.1716C40.1917 18.1716 40.995 17.3292 40.995 15.8051V9.72596H44.2713L44.2734 20.9137ZM41.2339 4.26343V6.93174L36.6072 8.97259V6.60607L41.2339 4.26343Z" fill="#060606"/>
<path d="M50.6942 9.56535C51.3423 9.55074 51.9837 9.69915 52.5595 9.99693C53.1354 10.2947 53.6272 10.7324 53.9899 11.2697V6.07419H57.2661V20.9138H53.9899V19.3093C53.395 20.3319 52.266 21.0745 50.6942 21.0745C48.0693 21.0745 45.9807 18.8274 45.9807 15.2971C45.9807 11.7669 48.0671 9.56535 50.6942 9.56535ZM51.6516 12.555C50.4249 12.555 49.3133 13.519 49.3133 15.3036C49.3133 17.0883 50.4249 18.0913 51.6516 18.0913C52.8783 18.0913 53.9899 17.1078 53.9899 15.3232C53.9899 13.5385 52.8978 12.555 51.6516 12.555Z" fill="#060606"/>
<path d="M70.2 20.9138H66.9216V19.394C66.5596 19.9145 66.0742 20.3372 65.509 20.6244C64.9437 20.9115 64.3161 21.0542 63.6823 21.0397C61.2094 21.0397 59.5441 19.255 59.5441 16.2632V9.72596H62.8008V15.8051C62.8008 17.3249 63.6258 18.1716 64.8503 18.1716C66.1161 18.1716 66.9194 17.3292 66.9194 15.8051V9.72596H70.1956L70.2 20.9138ZM67.1604 4.26343V6.93174L62.5338 8.97259V6.60607L67.1604 4.26343Z" fill="#060606"/>
<path d="M79.9359 14.8346C79.9359 13.3149 79.1304 12.4681 77.8863 12.4681C76.6423 12.4681 75.8325 13.3149 75.8325 14.8346V20.9138H72.5541V9.72599H75.8325V11.211C76.1998 10.6998 76.6866 10.2861 77.2505 10.006C77.8143 9.726 78.4381 9.58812 79.0674 9.60441C81.5403 9.60441 83.1926 11.3695 83.1926 14.3809V20.9138H79.9359V14.8346Z" fill="#060606"/>
<path d="M85.4728 6.07419H88.7491V14.2789L91.9884 9.7195H96.031L91.5845 15.3362L96.0701 20.9138H92.0079L88.7512 16.2198V20.9138H85.4728V6.07419Z" fill="#060606"/>
<path d="M107.877 20.9138H104.6V19.394C104.238 19.9145 103.753 20.3372 103.188 20.6244C102.622 20.9115 101.995 21.0542 101.361 21.0397C98.8881 21.0397 97.2207 19.255 97.2207 16.2632V9.72596H100.477V15.8051C100.477 17.3249 101.302 18.1716 102.527 18.1716C103.793 18.1716 104.596 17.3292 104.596 15.8051V9.72596H107.872L107.877 20.9138ZM104.837 4.26343V6.93174L100.21 8.97259V6.60607L104.837 4.26343Z" fill="#060606"/>
<path d="M110.229 6.07419H113.506V20.9138H110.229V6.07419Z" fill="#060606"/>
<path d="M126.442 20.9138H123.166V19.394C122.804 19.9145 122.319 20.3372 121.754 20.6244C121.188 20.9115 120.561 21.0542 119.927 21.0397C117.454 21.0397 115.787 19.255 115.787 16.2632V9.72596H119.043V15.8051C119.043 17.3249 119.868 18.1716 121.093 18.1716C122.359 18.1716 123.162 17.3292 123.162 15.8051V9.72596H126.442V20.9138ZM123.403 4.26343V6.93174L118.778 8.97259V6.60607L123.403 4.26343Z" fill="#060606"/>
<path d="M20.3951 1.82089C18.0659 0.476548 15.3904 -0.146959 12.7069 0.0292155C10.0234 0.20539 7.45243 1.17333 5.31902 2.81065C3.18561 4.44797 1.58561 6.68113 0.721339 9.22775C-0.142933 11.7744 -0.232663 14.5201 0.463496 17.1177C1.15965 19.7153 2.61043 22.0482 4.63239 23.8213C6.65435 25.5944 9.15668 26.7281 11.823 27.0791C14.4892 27.4301 17.1997 26.9827 19.6117 25.7932C22.0236 24.6038 24.0288 22.7259 25.3735 20.397C26.2665 18.8504 26.846 17.1431 27.0791 15.3725C27.3122 13.6019 27.1943 11.8028 26.732 10.0778C26.2697 8.35279 25.4721 6.73575 24.3848 5.31903C23.2975 3.9023 21.9418 2.71363 20.3951 1.82089ZM3.99879 12.8806C2.65053 12.6635 2.47901 10.5662 3.82293 8.22787C5.16686 5.88957 7.20771 4.77145 8.20642 5.5943C9.06185 6.29992 8.84473 8.23438 7.82431 9.9995C6.80388 11.7646 5.15383 13.0608 3.99879 12.8806ZM14.9738 21.9255C11.5 21.057 9.69798 16.8081 12.0602 12.7156C14.4223 8.62301 18.9947 8.05201 21.4937 10.6335C23.4108 12.6157 23.4889 15.9549 22.0343 18.4734C20.5796 20.9919 17.6486 22.5985 14.9738 21.9255Z" fill="#FFA700"/>
</svg>
