<svg width="58" height="60" viewBox="0 0 58 60" fill="none" xmlns="http://www.w3.org/2000/svg">
<path d="M6.65694 59.7141H4.6098V58.7645C4.3835 59.0896 4.08023 59.3537 3.72705 59.5331C3.37387 59.7125 2.98176 59.8018 2.58572 59.7928C1.04053 59.7928 0 58.6776 0 56.8082V52.7234H2.03493V56.522C2.03493 57.4716 2.55044 58.0007 3.31558 58.0007C4.10649 58.0007 4.60844 57.4743 4.60844 56.522V52.7234H6.65558L6.65694 59.7141ZM4.75767 49.3102V50.9775L1.86671 52.2527V50.774L4.75767 49.3102Z" fill="white"/>
<path d="M10.6689 52.6231C11.0738 52.6139 11.4746 52.7067 11.8344 52.8927C12.1942 53.0788 12.5016 53.3523 12.7282 53.688V50.4416H14.7754V59.7141H12.7282V58.7116C12.3565 59.3505 11.651 59.8145 10.6689 59.8145C9.0287 59.8145 7.72363 58.4104 7.72363 56.2045C7.72363 53.9987 9.02734 52.6231 10.6689 52.6231ZM11.2671 54.4911C10.5006 54.4911 9.80605 55.0935 9.80605 56.2086C9.80605 57.3238 10.5006 57.9505 11.2671 57.9505C12.0336 57.9505 12.7282 57.336 12.7282 56.2208C12.7282 55.1057 12.0458 54.4911 11.2671 54.4911Z" fill="white"/>
<path d="M22.857 59.7141H20.8085V58.7645C20.5823 59.0897 20.2791 59.3538 19.9259 59.5333C19.5727 59.7127 19.1805 59.8019 18.7844 59.7928C17.2393 59.7928 16.1987 58.6777 16.1987 56.8082V52.7234H18.2337V56.522C18.2337 57.4716 18.7492 58.0007 19.5143 58.0007C20.3052 58.0007 20.8072 57.4743 20.8072 56.522V52.7234H22.8543L22.857 59.7141ZM20.9578 49.3102V50.9775L18.0668 52.2527V50.774L20.9578 49.3102Z" fill="white"/>
<path d="M28.9406 55.9156C28.9406 54.9659 28.4373 54.4369 27.66 54.4369C26.8826 54.4369 26.3766 54.9659 26.3766 55.9156V59.7141H24.3281V52.7234H26.3766V53.6514C26.6061 53.3319 26.9103 53.0734 27.2626 52.8984C27.615 52.7235 28.0047 52.6373 28.398 52.6475C29.9432 52.6475 30.9756 53.7504 30.9756 55.632V59.7141H28.9406V55.9156Z" fill="white"/>
<path d="M32.4004 50.4416H34.4475V55.5683L36.4716 52.7194H38.9976L36.2193 56.229L39.0221 59.7141H36.4838L34.4489 56.7811V59.7141H32.4004V50.4416Z" fill="white"/>
<path d="M46.3995 59.7141H44.3524V58.7645C44.1262 59.0897 43.8229 59.3538 43.4697 59.5333C43.1165 59.7127 42.7244 59.8019 42.3283 59.7928C40.7831 59.7928 39.7412 58.6777 39.7412 56.8082V52.7234H41.7761V56.522C41.7761 57.4716 42.2917 58.0007 43.0568 58.0007C43.8477 58.0007 44.3497 57.4743 44.3497 56.522V52.7234H46.3968L46.3995 59.7141ZM44.5002 49.3102V50.9775L41.6093 52.2527V50.774L44.5002 49.3102Z" fill="white"/>
<path d="M47.8696 50.4416H49.9168V59.7141H47.8696V50.4416Z" fill="white"/>
<path d="M58.0001 59.7141H55.9529V58.7645C55.7267 59.0897 55.4235 59.3538 55.0703 59.5333C54.7171 59.7127 54.3249 59.8019 53.9289 59.7928C52.3837 59.7928 51.3418 58.6777 51.3418 56.8082V52.7234H53.3767V56.522C53.3767 57.4716 53.8922 58.0007 54.6574 58.0007C55.4483 58.0007 55.9502 57.4743 55.9502 56.522V52.7234H58.0001V59.7141ZM56.1008 49.3102V50.9775L53.2112 52.2527V50.774L56.1008 49.3102Z" fill="white"/>
<path d="M37.748 2.47736C34.5791 0.648353 30.939 -0.199941 27.2881 0.0397483C23.6371 0.279437 20.1392 1.59635 17.2366 3.82395C14.3341 6.05155 12.1573 9.08981 10.9814 12.5545C9.80554 16.0193 9.68346 19.7549 10.6306 23.289C11.5777 26.8231 13.5516 29.997 16.3025 32.4093C19.0534 34.8217 22.4579 36.3642 26.0854 36.8417C29.7129 37.3193 33.4006 36.7105 36.6821 35.0922C39.9636 33.474 42.6916 30.9191 44.5212 27.7505C45.7361 25.6464 46.5246 23.3235 46.8417 20.9146C47.1589 18.5057 46.9984 16.0579 46.3694 13.711C45.7404 11.3641 44.6553 9.16413 43.1761 7.23665C41.6968 5.30916 39.8523 3.69195 37.748 2.47736ZM15.4404 17.5243C13.6061 17.2289 13.3727 14.3755 15.2012 11.1942C17.0296 8.01289 19.8062 6.49165 21.165 7.61116C22.3288 8.57117 22.0334 11.203 20.6451 13.6045C19.2568 16.006 17.0119 17.7695 15.4404 17.5243ZM30.3722 29.83C25.646 28.6485 23.1943 22.8678 26.4081 17.2998C29.6219 11.7318 35.8427 10.9549 39.2426 14.4671C41.8509 17.1639 41.9572 21.707 39.9781 25.1334C37.999 28.5599 34.0113 30.7457 30.3722 29.83Z" fill="#FFA700"/>
</svg>
