<svg width="82" height="82" viewBox="0 0 82 82" fill="none" xmlns="http://www.w3.org/2000/svg">
<path opacity="0.3" d="M61.4955 5.49037C54.4726 1.43689 46.4054 -0.443112 38.3141 0.0880907C30.2228 0.619294 22.4706 3.53785 16.038 8.4747C9.60529 13.4116 4.78095 20.145 2.17499 27.8236C-0.430971 35.5022 -0.701527 43.7811 1.39754 51.6134C3.4966 59.4458 7.87101 66.4798 13.9676 71.8261C20.0643 77.1724 27.6093 80.5909 35.6487 81.6492C43.6881 82.7076 51.8607 81.3583 59.1333 77.772C66.4059 74.1857 72.4517 68.5234 76.5063 61.5012C79.1989 56.838 80.9464 51.69 81.6493 46.3513C82.3521 41.0126 81.9964 35.5878 80.6025 30.3866C79.2085 25.1854 76.8037 20.3097 73.5253 16.038C70.2469 11.7663 66.1592 8.18215 61.4955 5.49037ZM12.0572 38.8376C7.99189 38.183 7.47473 31.8592 11.5269 24.8087C15.5792 17.7583 21.7328 14.3869 24.7441 16.868C27.3234 18.9956 26.6687 24.8284 23.5919 30.1506C20.5151 35.4728 15.5399 39.381 12.0572 38.8376ZM45.1492 66.1098C34.675 63.4913 29.2415 50.68 36.3639 38.3401C43.4864 26.0002 57.2731 24.2785 64.808 32.0621C70.5884 38.039 70.8241 48.1073 66.438 55.7011C62.0519 63.2949 53.2143 68.1392 45.1492 66.1098Z" fill="#333333"/>
</svg>
