<svg width="154" height="133" viewBox="0 0 154 133" fill="none" xmlns="http://www.w3.org/2000/svg">
<path d="M2.226 119.13V125.052C2.226 126.023 2.44067 126.741 2.87 127.208C3.29933 127.665 3.892 127.894 4.648 127.894C5.39467 127.894 5.978 127.661 6.398 127.194C6.818 126.727 7.028 126.013 7.028 125.052V119.13H8.302V125.052C8.302 126.396 7.966 127.409 7.294 128.09C6.63133 128.762 5.74 129.098 4.62 129.098C3.50933 129.098 2.618 128.762 1.946 128.09C1.28333 127.409 0.952 126.396 0.952 125.052V119.13H2.226ZM14.5199 121.216C15.2012 121.216 15.8079 121.375 16.3399 121.692C16.8719 122.009 17.2872 122.467 17.5859 123.064C17.8939 123.661 18.0479 124.361 18.0479 125.164C18.0479 125.967 17.8939 126.667 17.5859 127.264C17.2872 127.852 16.8719 128.305 16.3399 128.622C15.8079 128.939 15.2012 129.098 14.5199 129.098C13.7732 129.098 13.1385 128.911 12.6159 128.538C12.1025 128.155 11.7479 127.656 11.5519 127.04V132.64H10.2779V121.314H11.5519V123.274C11.7479 122.658 12.1025 122.163 12.6159 121.79C13.1385 121.407 13.7732 121.216 14.5199 121.216ZM14.1559 122.35C13.6612 122.35 13.2132 122.467 12.8119 122.7C12.4105 122.924 12.0979 123.251 11.8739 123.68C11.6499 124.109 11.5379 124.604 11.5379 125.164C11.5379 125.724 11.6499 126.219 11.8739 126.648C12.0979 127.068 12.4105 127.395 12.8119 127.628C13.2132 127.861 13.6612 127.978 14.1559 127.978C14.9492 127.978 15.5792 127.731 16.0459 127.236C16.5219 126.732 16.7599 126.041 16.7599 125.164C16.7599 124.287 16.5219 123.601 16.0459 123.106C15.5792 122.602 14.9492 122.35 14.1559 122.35ZM20.9855 118.64V129H19.7115V118.64H20.9855ZM26.5197 121.216C27.2571 121.216 27.9151 121.375 28.4937 121.692C29.0817 122.009 29.5391 122.467 29.8657 123.064C30.2017 123.661 30.3697 124.361 30.3697 125.164C30.3697 125.967 30.2017 126.667 29.8657 127.264C29.5391 127.852 29.0817 128.305 28.4937 128.622C27.9151 128.939 27.2571 129.098 26.5197 129.098C25.7824 129.098 25.1197 128.939 24.5317 128.622C23.9531 128.305 23.4957 127.852 23.1597 127.264C22.8237 126.667 22.6557 125.967 22.6557 125.164C22.6557 124.361 22.8237 123.661 23.1597 123.064C23.4957 122.467 23.9531 122.009 24.5317 121.692C25.1197 121.375 25.7824 121.216 26.5197 121.216ZM26.5197 122.336C26.0624 122.336 25.6377 122.439 25.2457 122.644C24.8631 122.849 24.5504 123.167 24.3077 123.596C24.0744 124.016 23.9577 124.539 23.9577 125.164C23.9577 125.78 24.0744 126.303 24.3077 126.732C24.5504 127.152 24.8631 127.465 25.2457 127.67C25.6377 127.875 26.0624 127.978 26.5197 127.978C26.9771 127.978 27.3971 127.875 27.7797 127.67C28.1717 127.465 28.4844 127.152 28.7177 126.732C28.9604 126.303 29.0817 125.78 29.0817 125.164C29.0817 124.539 28.9604 124.016 28.7177 123.596C28.4844 123.167 28.1717 122.849 27.7797 122.644C27.3971 122.439 26.9771 122.336 26.5197 122.336ZM35.1798 121.216C35.9265 121.216 36.5565 121.403 37.0698 121.776C37.5925 122.149 37.9565 122.649 38.1618 123.274V121.314H39.4358V129H38.1618V127.04C37.9565 127.665 37.5925 128.165 37.0698 128.538C36.5565 128.911 35.9265 129.098 35.1798 129.098C34.4985 129.098 33.8918 128.939 33.3598 128.622C32.8278 128.305 32.4078 127.852 32.0998 127.264C31.8011 126.667 31.6518 125.967 31.6518 125.164C31.6518 124.361 31.8011 123.661 32.0998 123.064C32.4078 122.467 32.8278 122.009 33.3598 121.692C33.8918 121.375 34.4985 121.216 35.1798 121.216ZM35.5438 122.35C34.7598 122.35 34.1298 122.602 33.6538 123.106C33.1871 123.601 32.9538 124.287 32.9538 125.164C32.9538 126.041 33.1871 126.732 33.6538 127.236C34.1298 127.731 34.7598 127.978 35.5438 127.978C36.0478 127.978 36.4958 127.861 36.8878 127.628C37.2891 127.395 37.6018 127.068 37.8258 126.648C38.0498 126.219 38.1618 125.724 38.1618 125.164C38.1618 124.604 38.0498 124.109 37.8258 123.68C37.6018 123.251 37.2891 122.924 36.8878 122.7C36.4958 122.467 36.0478 122.35 35.5438 122.35ZM44.6134 121.216C45.3601 121.216 45.9901 121.403 46.5034 121.776C47.0261 122.149 47.3901 122.649 47.5954 123.274V118.64H48.8694V129H47.5954V127.04C47.3901 127.665 47.0261 128.165 46.5034 128.538C45.9901 128.911 45.3601 129.098 44.6134 129.098C43.9321 129.098 43.3254 128.939 42.7934 128.622C42.2614 128.305 41.8414 127.852 41.5334 127.264C41.2347 126.667 41.0854 125.967 41.0854 125.164C41.0854 124.361 41.2347 123.661 41.5334 123.064C41.8414 122.467 42.2614 122.009 42.7934 121.692C43.3254 121.375 43.9321 121.216 44.6134 121.216ZM44.9774 122.35C44.1934 122.35 43.5634 122.602 43.0874 123.106C42.6207 123.601 42.3874 124.287 42.3874 125.164C42.3874 126.041 42.6207 126.732 43.0874 127.236C43.5634 127.731 44.1934 127.978 44.9774 127.978C45.4814 127.978 45.9294 127.861 46.3214 127.628C46.7227 127.395 47.0354 127.068 47.2594 126.648C47.4834 126.219 47.5954 125.724 47.5954 125.164C47.5954 124.604 47.4834 124.109 47.2594 123.68C47.0354 123.251 46.7227 122.924 46.3214 122.7C45.9294 122.467 45.4814 122.35 44.9774 122.35ZM57.967 124.73C57.967 125.001 57.9483 125.234 57.911 125.43H51.765C51.793 126.307 52.0403 126.965 52.507 127.404C52.983 127.843 53.5617 128.062 54.243 128.062C54.859 128.062 55.3723 127.908 55.783 127.6C56.203 127.283 56.4597 126.863 56.553 126.34H57.911C57.8177 126.872 57.6077 127.348 57.281 127.768C56.9637 128.188 56.5483 128.515 56.035 128.748C55.5217 128.981 54.943 129.098 54.299 129.098C53.5617 129.098 52.9083 128.939 52.339 128.622C51.7697 128.305 51.3217 127.852 50.995 127.264C50.6777 126.667 50.519 125.967 50.519 125.164C50.519 124.361 50.6777 123.661 50.995 123.064C51.3217 122.467 51.7697 122.009 52.339 121.692C52.9083 121.375 53.5617 121.216 54.299 121.216C55.0457 121.216 55.6943 121.375 56.245 121.692C56.805 122.009 57.2297 122.434 57.519 122.966C57.8177 123.498 57.967 124.086 57.967 124.73ZM56.679 124.814C56.707 124.245 56.6137 123.769 56.399 123.386C56.1843 123.003 55.8903 122.719 55.517 122.532C55.1437 122.345 54.7377 122.252 54.299 122.252C53.599 122.252 53.011 122.471 52.535 122.91C52.059 123.339 51.8023 123.974 51.765 124.814H56.679ZM62.7833 121.216C63.53 121.216 64.16 121.403 64.6733 121.776C65.196 122.149 65.56 122.649 65.7653 123.274V118.64H67.0393V129H65.7653V127.04C65.56 127.665 65.196 128.165 64.6733 128.538C64.16 128.911 63.53 129.098 62.7833 129.098C62.102 129.098 61.4953 128.939 60.9633 128.622C60.4313 128.305 60.0113 127.852 59.7033 127.264C59.4047 126.667 59.2553 125.967 59.2553 125.164C59.2553 124.361 59.4047 123.661 59.7033 123.064C60.0113 122.467 60.4313 122.009 60.9633 121.692C61.4953 121.375 62.102 121.216 62.7833 121.216ZM63.1473 122.35C62.3633 122.35 61.7333 122.602 61.2573 123.106C60.7907 123.601 60.5573 124.287 60.5573 125.164C60.5573 126.041 60.7907 126.732 61.2573 127.236C61.7333 127.731 62.3633 127.978 63.1473 127.978C63.6513 127.978 64.0993 127.861 64.4913 127.628C64.8927 127.395 65.2053 127.068 65.4293 126.648C65.6533 126.219 65.7653 125.724 65.7653 125.164C65.7653 124.604 65.6533 124.109 65.4293 123.68C65.2053 123.251 64.8927 122.924 64.4913 122.7C64.0993 122.467 63.6513 122.35 63.1473 122.35ZM74.9339 121.216C75.8019 121.216 76.4972 121.445 77.0199 121.902C77.5519 122.35 77.8739 122.957 77.9859 123.722H76.7679C76.7119 123.265 76.5206 122.891 76.1939 122.602C75.8766 122.303 75.4472 122.154 74.9059 122.154C74.4486 122.154 74.0892 122.266 73.8279 122.49C73.5759 122.705 73.4499 122.999 73.4499 123.372C73.4499 123.652 73.5339 123.881 73.7019 124.058C73.8792 124.226 74.0939 124.357 74.3459 124.45C74.6072 124.534 74.9619 124.627 75.4099 124.73C75.9792 124.861 76.4366 124.996 76.7819 125.136C77.1366 125.267 77.4352 125.481 77.6779 125.78C77.9299 126.079 78.0559 126.48 78.0559 126.984C78.0559 127.609 77.8179 128.118 77.3419 128.51C76.8752 128.902 76.2499 129.098 75.4659 129.098C74.5512 129.098 73.8046 128.879 73.2259 128.44C72.6472 128.001 72.3066 127.39 72.2039 126.606H73.4359C73.4826 127.073 73.6832 127.451 74.0379 127.74C74.4019 128.029 74.8779 128.174 75.4659 128.174C75.9046 128.174 76.2452 128.062 76.4879 127.838C76.7399 127.614 76.8659 127.32 76.8659 126.956C76.8659 126.657 76.7772 126.419 76.5999 126.242C76.4226 126.065 76.2032 125.929 75.9419 125.836C75.6806 125.743 75.3212 125.645 74.8639 125.542C74.2946 125.411 73.8372 125.281 73.4919 125.15C73.1559 125.019 72.8666 124.814 72.6239 124.534C72.3906 124.245 72.2739 123.857 72.2739 123.372C72.2739 122.728 72.5119 122.21 72.9879 121.818C73.4639 121.417 74.1126 121.216 74.9339 121.216ZM86.5903 121.314V129H85.3163V127.194C85.1203 127.819 84.7703 128.3 84.2663 128.636C83.7717 128.963 83.193 129.126 82.5303 129.126C81.6437 129.126 80.925 128.841 80.3743 128.272C79.8237 127.693 79.5483 126.867 79.5483 125.794V121.314H80.8223V125.668C80.8223 126.433 81.0183 127.026 81.4103 127.446C81.8023 127.857 82.3343 128.062 83.0063 128.062C83.7063 128.062 84.2663 127.838 84.6863 127.39C85.1063 126.933 85.3163 126.27 85.3163 125.402V121.314H86.5903ZM92.0334 121.216C93.0134 121.216 93.8254 121.477 94.4694 122C95.1134 122.523 95.51 123.223 95.6594 124.1H94.3154C94.222 123.549 93.9654 123.12 93.5454 122.812C93.1347 122.495 92.6214 122.336 92.0054 122.336C91.5574 122.336 91.1467 122.439 90.7734 122.644C90.4094 122.849 90.1154 123.167 89.8914 123.596C89.6674 124.016 89.5554 124.539 89.5554 125.164C89.5554 125.789 89.6674 126.317 89.8914 126.746C90.1154 127.166 90.4094 127.479 90.7734 127.684C91.1467 127.889 91.5574 127.992 92.0054 127.992C92.6214 127.992 93.1347 127.833 93.5454 127.516C93.9654 127.199 94.222 126.765 94.3154 126.214H95.6594C95.51 127.101 95.1134 127.805 94.4694 128.328C93.8254 128.841 93.0134 129.098 92.0334 129.098C91.296 129.098 90.6427 128.939 90.0734 128.622C89.504 128.305 89.056 127.852 88.7294 127.264C88.412 126.667 88.2534 125.967 88.2534 125.164C88.2534 124.361 88.412 123.661 88.7294 123.064C89.056 122.467 89.504 122.009 90.0734 121.692C90.6427 121.375 91.296 121.216 92.0334 121.216ZM100.729 121.216C101.709 121.216 102.521 121.477 103.165 122C103.809 122.523 104.205 123.223 104.355 124.1H103.011C102.917 123.549 102.661 123.12 102.241 122.812C101.83 122.495 101.317 122.336 100.701 122.336C100.253 122.336 99.842 122.439 99.4687 122.644C99.1047 122.849 98.8107 123.167 98.5867 123.596C98.3627 124.016 98.2507 124.539 98.2507 125.164C98.2507 125.789 98.3627 126.317 98.5867 126.746C98.8107 127.166 99.1047 127.479 99.4687 127.684C99.842 127.889 100.253 127.992 100.701 127.992C101.317 127.992 101.83 127.833 102.241 127.516C102.661 127.199 102.917 126.765 103.011 126.214H104.355C104.205 127.101 103.809 127.805 103.165 128.328C102.521 128.841 101.709 129.098 100.729 129.098C99.9914 129.098 99.338 128.939 98.7687 128.622C98.1994 128.305 97.7514 127.852 97.4247 127.264C97.1074 126.667 96.9487 125.967 96.9487 125.164C96.9487 124.361 97.1074 123.661 97.4247 123.064C97.7514 122.467 98.1994 122.009 98.7687 121.692C99.338 121.375 99.9914 121.216 100.729 121.216ZM113.092 124.73C113.092 125.001 113.073 125.234 113.036 125.43H106.89C106.918 126.307 107.165 126.965 107.632 127.404C108.108 127.843 108.687 128.062 109.368 128.062C109.984 128.062 110.497 127.908 110.908 127.6C111.328 127.283 111.585 126.863 111.678 126.34H113.036C112.943 126.872 112.733 127.348 112.406 127.768C112.089 128.188 111.673 128.515 111.16 128.748C110.647 128.981 110.068 129.098 109.424 129.098C108.687 129.098 108.033 128.939 107.464 128.622C106.895 128.305 106.447 127.852 106.12 127.264C105.803 126.667 105.644 125.967 105.644 125.164C105.644 124.361 105.803 123.661 106.12 123.064C106.447 122.467 106.895 122.009 107.464 121.692C108.033 121.375 108.687 121.216 109.424 121.216C110.171 121.216 110.819 121.375 111.37 121.692C111.93 122.009 112.355 122.434 112.644 122.966C112.943 123.498 113.092 124.086 113.092 124.73ZM111.804 124.814C111.832 124.245 111.739 123.769 111.524 123.386C111.309 123.003 111.015 122.719 110.642 122.532C110.269 122.345 109.863 122.252 109.424 122.252C108.724 122.252 108.136 122.471 107.66 122.91C107.184 123.339 106.927 123.974 106.89 124.814H111.804ZM117.166 121.216C118.034 121.216 118.73 121.445 119.252 121.902C119.784 122.35 120.106 122.957 120.218 123.722H119C118.944 123.265 118.753 122.891 118.426 122.602C118.109 122.303 117.68 122.154 117.138 122.154C116.681 122.154 116.322 122.266 116.06 122.49C115.808 122.705 115.682 122.999 115.682 123.372C115.682 123.652 115.766 123.881 115.934 124.058C116.112 124.226 116.326 124.357 116.578 124.45C116.84 124.534 117.194 124.627 117.642 124.73C118.212 124.861 118.669 124.996 119.014 125.136C119.369 125.267 119.668 125.481 119.91 125.78C120.162 126.079 120.288 126.48 120.288 126.984C120.288 127.609 120.05 128.118 119.574 128.51C119.108 128.902 118.482 129.098 117.698 129.098C116.784 129.098 116.037 128.879 115.458 128.44C114.88 128.001 114.539 127.39 114.436 126.606H115.668C115.715 127.073 115.916 127.451 116.27 127.74C116.634 128.029 117.11 128.174 117.698 128.174C118.137 128.174 118.478 128.062 118.72 127.838C118.972 127.614 119.098 127.32 119.098 126.956C119.098 126.657 119.01 126.419 118.832 126.242C118.655 126.065 118.436 125.929 118.174 125.836C117.913 125.743 117.554 125.645 117.096 125.542C116.527 125.411 116.07 125.281 115.724 125.15C115.388 125.019 115.099 124.814 114.856 124.534C114.623 124.245 114.506 123.857 114.506 123.372C114.506 122.728 114.744 122.21 115.22 121.818C115.696 121.417 116.345 121.216 117.166 121.216ZM124.399 121.216C125.267 121.216 125.962 121.445 126.485 121.902C127.017 122.35 127.339 122.957 127.451 123.722H126.233C126.177 123.265 125.985 122.891 125.659 122.602C125.341 122.303 124.912 122.154 124.371 122.154C123.913 122.154 123.554 122.266 123.293 122.49C123.041 122.705 122.915 122.999 122.915 123.372C122.915 123.652 122.999 123.881 123.167 124.058C123.344 124.226 123.559 124.357 123.811 124.45C124.072 124.534 124.427 124.627 124.875 124.73C125.444 124.861 125.901 124.996 126.247 125.136C126.601 125.267 126.9 125.481 127.143 125.78C127.395 126.079 127.521 126.48 127.521 126.984C127.521 127.609 127.283 128.118 126.807 128.51C126.34 128.902 125.715 129.098 124.931 129.098C124.016 129.098 123.269 128.879 122.691 128.44C122.112 128.001 121.771 127.39 121.669 126.606H122.901C122.947 127.073 123.148 127.451 123.503 127.74C123.867 128.029 124.343 128.174 124.931 128.174C125.369 128.174 125.71 128.062 125.953 127.838C126.205 127.614 126.331 127.32 126.331 126.956C126.331 126.657 126.242 126.419 126.065 126.242C125.887 126.065 125.668 125.929 125.407 125.836C125.145 125.743 124.786 125.645 124.329 125.542C123.759 125.411 123.302 125.281 122.957 125.15C122.621 125.019 122.331 124.814 122.089 124.534C121.855 124.245 121.739 123.857 121.739 123.372C121.739 122.728 121.977 122.21 122.453 121.818C122.929 121.417 123.577 121.216 124.399 121.216ZM132.625 119.494C131.944 119.485 131.468 119.601 131.197 119.844C130.936 120.087 130.805 120.507 130.805 121.104V121.314H132.625V122.434H130.805V129H129.531V122.434H128.425V121.314H129.531V121.006C129.531 119.167 130.563 118.29 132.625 118.374V119.494ZM140.84 121.314V129H139.566V127.194C139.37 127.819 139.02 128.3 138.516 128.636C138.022 128.963 137.443 129.126 136.78 129.126C135.894 129.126 135.175 128.841 134.624 128.272C134.074 127.693 133.798 126.867 133.798 125.794V121.314H135.072V125.668C135.072 126.433 135.268 127.026 135.66 127.446C136.052 127.857 136.584 128.062 137.256 128.062C137.956 128.062 138.516 127.838 138.936 127.39C139.356 126.933 139.566 126.27 139.566 125.402V121.314H140.84ZM144.155 118.64V129H142.881V118.64H144.155ZM146.736 121.314L149.228 127.362L151.538 121.314H152.952L148.388 132.64H146.946L148.542 128.874L145.308 121.314H146.736Z" fill="#BDBDBD"/>
<circle cx="77" cy="45" r="45" fill="#FFA700"/>
<path d="M90.0563 41.57C88.8946 35.5325 83.7183 31 77.5 31C72.5629 31 68.275 33.87 66.1396 38.07C60.9975 38.63 57 43.0925 57 48.5C57 54.2925 61.5954 59 67.25 59H89.4583C94.1733 59 98 55.08 98 50.25C98 45.63 94.4979 41.885 90.0563 41.57ZM74.0833 53.75L68.1042 47.625L70.5129 45.1575L74.0833 48.7975L82.9325 39.75L85.3413 42.2175L74.0833 53.75Z" fill="black"/>
</svg>
