<svg width="24" height="22" viewBox="0 0 24 22" fill="none" xmlns="http://www.w3.org/2000/svg">
<mask id="path-1-inside-1" fill="white">
<path d="M20.7305 9.59766C20.3862 9.59766 20.107 9.87684 20.107 10.2212V20.147H15.1184V14.7289C15.1184 13.0095 13.7196 11.6107 12.0003 11.6107C10.2811 11.6107 8.88221 13.0096 8.88221 14.7289V20.147H3.89364V10.2213C3.89364 9.87689 3.6144 9.5977 3.27006 9.5977C2.92572 9.5977 2.64648 9.87689 2.64648 10.2213V20.7706C2.64648 21.115 2.92572 21.3942 3.27006 21.3942H9.50579C9.83372 21.3942 10.1021 21.1408 10.1269 20.8192C10.1284 20.8046 10.1294 20.7887 10.1294 20.7706V14.7289C10.1294 13.6972 10.9687 12.8579 12.0003 12.8579C13.032 12.8579 13.8713 13.6973 13.8713 14.7289V20.7706C13.8713 20.7886 13.8722 20.8042 13.8737 20.8186C13.8983 21.1405 14.1667 21.3942 14.4949 21.3942H20.7306C21.075 21.3942 21.3542 21.115 21.3542 20.7706V10.2213C21.3541 9.87684 21.0749 9.59766 20.7305 9.59766Z"/>
</mask>
<path d="M20.7305 9.59766C20.3862 9.59766 20.107 9.87684 20.107 10.2212V20.147H15.1184V14.7289C15.1184 13.0095 13.7196 11.6107 12.0003 11.6107C10.2811 11.6107 8.88221 13.0096 8.88221 14.7289V20.147H3.89364V10.2213C3.89364 9.87689 3.6144 9.5977 3.27006 9.5977C2.92572 9.5977 2.64648 9.87689 2.64648 10.2213V20.7706C2.64648 21.115 2.92572 21.3942 3.27006 21.3942H9.50579C9.83372 21.3942 10.1021 21.1408 10.1269 20.8192C10.1284 20.8046 10.1294 20.7887 10.1294 20.7706V14.7289C10.1294 13.6972 10.9687 12.8579 12.0003 12.8579C13.032 12.8579 13.8713 13.6973 13.8713 14.7289V20.7706C13.8713 20.7886 13.8722 20.8042 13.8737 20.8186C13.8983 21.1405 14.1667 21.3942 14.4949 21.3942H20.7306C21.075 21.3942 21.3542 21.115 21.3542 20.7706V10.2213C21.3541 9.87684 21.0749 9.59766 20.7305 9.59766Z" fill="black"/>
<path d="M20.107 20.147V30.1469H30.107V20.147H20.107ZM15.1184 20.147H5.11845V30.1469H15.1184V20.147ZM8.88221 20.147V30.147H18.8822V20.147H8.88221ZM3.89364 20.147H-6.10636V30.147H3.89364V20.147ZM10.1269 20.8192L0.179445 19.7956L0.16642 19.9222L0.15662 20.0491L10.1269 20.8192ZM13.8737 20.8186L23.8447 20.0578L23.8342 19.9197L23.8198 19.7819L13.8737 20.8186ZM21.3542 10.2213H31.3542V10.2199L21.3542 10.2213ZM20.7305 -0.402344C14.8639 -0.402344 10.107 4.35349 10.107 10.2212H30.107C30.107 15.4002 25.9085 19.5977 20.7305 19.5977V-0.402344ZM10.107 10.2212V20.147H30.107V10.2212H10.107ZM20.107 10.147H15.1184V30.1469H20.107V10.147ZM25.1184 20.147V14.7289H5.11845V20.147H25.1184ZM25.1184 14.7289C25.1184 7.48645 19.2423 1.61075 12.0003 1.61075V21.6107C8.19696 21.6107 5.11845 18.5325 5.11845 14.7289H25.1184ZM12.0003 1.61075C4.75821 1.61075 -1.11779 7.48674 -1.11779 14.7289H18.8822C18.8822 18.5324 15.8039 21.6107 12.0003 21.6107V1.61075ZM-1.11779 14.7289V20.147H18.8822V14.7289H-1.11779ZM8.88221 10.147H3.89364V30.147H8.88221V10.147ZM13.8936 20.147V10.2213H-6.10636V20.147H13.8936ZM13.8936 10.2213C13.8936 4.35355 9.13675 -0.402297 3.27006 -0.402297V19.5977C-1.90795 19.5977 -6.10636 15.4002 -6.10636 10.2213H13.8936ZM3.27006 -0.402297C-2.59664 -0.402297 -7.35352 4.35355 -7.35352 10.2213H12.6465C12.6465 15.4002 8.44807 19.5977 3.27006 19.5977V-0.402297ZM-7.35352 10.2213V20.7706H12.6465V10.2213H-7.35352ZM-7.35352 20.7706C-7.35352 26.6383 -2.59665 31.3942 3.27006 31.3942V11.3942C8.44809 11.3942 12.6465 15.5917 12.6465 20.7706H-7.35352ZM3.27006 31.3942H9.50579V11.3942H3.27006V31.3942ZM9.50579 31.3942C15.1118 31.3942 19.6743 27.0656 20.0972 21.5893L0.15662 20.0491C0.529908 15.2161 4.5556 11.3942 9.50579 11.3942V31.3942ZM20.0744 21.8427C20.1095 21.5017 20.1294 21.1439 20.1294 20.7706H0.129363C0.129363 20.4334 0.147353 20.1075 0.179445 19.7956L20.0744 21.8427ZM20.1294 20.7706V14.7289H0.129363V20.7706H20.1294ZM20.1294 14.7289C20.1294 19.2201 16.4915 22.8579 12.0003 22.8579V2.85795C5.44581 2.85795 0.129363 8.1744 0.129363 14.7289H20.1294ZM12.0003 22.8579C7.50899 22.8579 3.87129 19.22 3.87129 14.7289H23.8713C23.8713 8.17461 18.555 2.85795 12.0003 2.85795V22.8579ZM3.87129 14.7289V20.7706H23.8713V14.7289H3.87129ZM3.87129 20.7706C3.87129 21.1486 3.89167 21.5105 3.92762 21.8554L23.8198 19.7819C23.8528 20.0979 23.8713 20.4285 23.8713 20.7706H3.87129ZM3.90272 21.5795C4.32088 27.0595 8.88464 31.3942 14.4949 31.3942V11.3942C19.4489 11.3942 23.4757 15.2215 23.8447 20.0578L3.90272 21.5795ZM14.4949 31.3942H20.7306V11.3942H14.4949V31.3942ZM20.7306 31.3942C26.5979 31.3942 31.3542 26.6378 31.3542 20.7706H11.3542C11.3542 15.5922 15.5521 11.3942 20.7306 11.3942V31.3942ZM31.3542 20.7706V10.2213H11.3542V20.7706H31.3542ZM31.3542 10.2199C31.3534 4.35446 26.5986 -0.402344 20.7305 -0.402344V19.5977C15.5513 19.5977 11.3549 15.3992 11.3542 10.2226L31.3542 10.2199Z" fill="black" mask="url(#path-1-inside-1)"/>
<path d="M11.9271 0.523871L11.9271 0.523834C11.9705 0.492083 12.0295 0.492008 12.0731 0.523894L23.4493 8.85338C23.4494 8.85339 23.4494 8.85339 23.4494 8.8534C23.5045 8.89382 23.5163 8.9711 23.4761 9.02599L23.476 9.02614C23.4521 9.05886 23.4154 9.07671 23.3758 9.07671C23.3505 9.07671 23.3258 9.06923 23.3035 9.05291L23.3034 9.05282L12.2954 0.993003L12 0.776732L11.7046 0.993004L0.69669 9.05284C0.641632 9.09315 0.564232 9.08119 0.523899 9.02612C0.483628 8.97112 0.4955 8.89378 0.550669 8.85338L11.9271 0.523871Z" fill="black" stroke="black"/>
</svg>
