<svg width="157" height="105" viewBox="0 0 157 105" fill="none" xmlns="http://www.w3.org/2000/svg">
<g opacity="0.3">
<path d="M68.4954 45.0754C66.159 47.0402 63.5214 48.6694 60.6438 49.8565C68.3756 51.2804 74.6248 54.273 79.2245 58.8822C87.0874 66.7608 90.9047 79.8087 90.5692 97.663C90.5077 97.706 90.4105 97.7521 90.2971 97.7521H7.97874C7.85231 97.7521 7.7453 97.6964 7.68209 97.6486C7.1978 79.1883 10.7234 66.4205 18.4598 58.6165C23.0338 54.0026 29.3558 51.045 37.2657 49.7147C34.3963 48.4914 31.7733 46.8271 29.4547 44.8271C3.95409 52.6836 0.499664 77.9504 1.05231 98.0051C1.14456 101.466 4.31378 104.269 7.97874 104.269H90.2971C93.9621 104.269 97.1295 101.466 97.2008 98.0051C97.6075 78.1604 93.5181 53.2134 68.4954 45.0754Z" fill="#E0E0E0"/>
<path d="M49.1151 45.6174C61.9456 45.6174 72.3426 35.4046 72.3426 22.8054C72.3426 10.2111 61.9456 0 49.1151 0C36.2927 0 25.8877 10.2111 25.8877 22.8054C25.8877 35.4046 36.2927 45.6174 49.1151 45.6174ZM49.1151 6.51677C58.2629 6.51677 65.7062 13.8243 65.7062 22.8054C65.7062 31.7899 58.2629 39.1006 49.1151 39.1006C39.9673 39.1006 32.5241 31.7899 32.5241 22.8054C32.5241 13.8243 39.9673 6.51677 49.1151 6.51677Z" fill="#E0E0E0"/>
<path d="M117.136 55.3926C128.133 55.3926 137.047 46.6404 137.047 35.8407C137.047 25.0473 128.133 16.292 117.136 16.292C106.145 16.292 97.2285 25.0473 97.2285 35.8407C97.2285 46.6404 106.145 55.3926 117.136 55.3926ZM117.136 22.8088C124.456 22.8088 130.411 28.6541 130.411 35.8407C130.411 43.0288 124.456 48.8758 117.136 48.8758C109.818 48.8758 103.865 43.0288 103.865 35.8407C103.865 28.6541 109.818 22.8088 117.136 22.8088Z" fill="#E0E0E0"/>
<path d="M99.0128 54.834C97.3731 55.4466 95.8632 56.161 94.4551 56.9516C95.6136 58.751 96.6619 60.6666 97.608 62.6888C100.1 61.2712 102.948 60.2276 106.194 59.5625C103.535 58.3757 101.118 56.7719 99.0128 54.834Z" fill="#E0E0E0"/>
<path d="M134.996 55.0703C132.885 56.9636 130.474 58.534 127.825 59.6844C133.274 60.8935 137.653 63.1685 141.056 66.5765C147.329 72.8595 150.443 83.3441 150.315 97.7507H103.838C103.836 97.8796 103.839 98.0037 103.836 98.1342C103.791 100.36 103.136 102.449 102.036 104.268H151.219C154.254 104.268 156.876 101.905 156.934 98.9933C157.26 82.7809 154.087 62.5242 134.996 55.0703Z" fill="#E0E0E0"/>
<rect y="96" width="157" height="9" fill="#1F2858"/>
</g>
</svg>
