<svg width="90" height="105" viewBox="0 0 90 105" fill="none" xmlns="http://www.w3.org/2000/svg">
<g opacity="0.3">
<path d="M44.2759 56.577C44.3846 56.577 44.4933 56.577 44.6238 56.577C44.6673 56.577 44.7108 56.577 44.7543 56.577C44.8195 56.577 44.9065 56.577 44.9717 56.577C51.3426 56.4683 56.4958 54.2287 60.301 49.9452C68.6723 40.5085 67.2807 24.3312 67.1285 22.7874C66.5849 11.198 61.1055 5.65335 56.5828 3.06586C53.2125 1.13067 49.2769 0.0869747 44.8847 0H44.7325C44.7108 0 44.6673 0 44.6455 0H44.5151C42.1015 0 37.3614 0.391386 32.817 2.97888C28.2508 5.56638 22.6844 11.111 22.1408 22.7874C21.9886 24.3312 20.597 40.5085 28.9683 49.9452C32.7517 54.2287 37.905 56.4683 44.2759 56.577ZM27.9464 23.331C27.9464 23.2657 27.9681 23.2005 27.9681 23.157C28.6857 7.5668 39.7532 5.89253 44.4933 5.89253H44.5803C44.6238 5.89253 44.689 5.89253 44.7543 5.89253C50.625 6.023 60.6054 8.4148 61.2794 23.157C61.2794 23.2222 61.2794 23.2875 61.3012 23.331C61.3229 23.4832 62.845 38.2689 55.9305 46.0531C53.1908 49.1407 49.5379 50.6628 44.7325 50.7062C44.689 50.7062 44.6673 50.7062 44.6238 50.7062C44.5803 50.7062 44.5586 50.7062 44.5151 50.7062C39.7315 50.6628 36.0568 49.1407 33.3388 46.0531C26.4461 38.3123 27.9247 23.4614 27.9464 23.331Z" fill="#E0E0E0"/>
<path d="M89.3072 83.4087C89.3072 83.3869 89.3072 83.3652 89.3072 83.3434C89.3072 83.1695 89.2854 82.9955 89.2854 82.7998C89.155 78.4946 88.8723 68.4273 79.4356 65.2092C79.3703 65.1875 79.2833 65.1657 79.2181 65.144C69.4117 62.6435 61.2578 56.9901 61.1709 56.9249C59.8445 55.9899 58.018 56.3161 57.0831 57.6424C56.1481 58.9688 56.4742 60.7953 57.8006 61.7302C58.1702 61.9912 66.8242 68.0142 77.6526 70.7973C82.7188 72.6021 83.2842 78.0162 83.4364 82.9738C83.4364 83.1695 83.4364 83.3434 83.4581 83.5174C83.4799 85.4743 83.3494 88.4967 83.0015 90.2362C79.479 92.2366 65.6718 99.1511 44.6674 99.1511C23.75 99.1511 9.8558 92.2149 6.31158 90.2144C5.96368 88.4749 5.81148 85.4526 5.85497 83.4956C5.85497 83.3217 5.87671 83.1477 5.87671 82.9521C6.02892 77.9945 6.59425 72.5803 11.6605 70.7756C22.4889 67.9924 31.1429 61.9477 31.5125 61.7085C32.8389 60.7735 33.165 58.947 32.23 57.6207C31.2951 56.2943 29.4686 55.9682 28.1422 56.9031C28.0553 56.9684 19.9449 62.6217 10.095 65.1222C10.008 65.144 9.94278 65.1657 9.87755 65.1875C0.440792 68.4273 0.158124 78.4946 0.027662 82.7781C0.027662 82.9738 0.0276615 83.1478 0.00591786 83.3217C0.00591786 83.3434 0.00591786 83.3652 0.00591786 83.3869C-0.0158258 84.5176 -0.037569 90.3232 1.11485 93.2368C1.33228 93.8021 1.72367 94.2805 2.24552 94.6067C2.89783 95.0415 18.5315 105 44.6892 105C70.8468 105 86.4805 95.0198 87.1328 94.6067C87.6329 94.2805 88.0461 93.8021 88.2635 93.2368C89.3507 90.3449 89.3289 84.5393 89.3072 83.4087Z" fill="#E0E0E0"/>
</g>
</svg>
