<svg width="105" height="105" viewBox="0 0 105 105" fill="none" xmlns="http://www.w3.org/2000/svg">
<g opacity="0.3">
<path d="M103.777 25.6431C103.009 25.0619 102.012 24.8743 101.084 25.1368L57.6079 37.4413C56.2837 37.8162 55.3695 39.0249 55.3695 40.4012V82.0465C53.558 80.9959 51.4576 80.3911 49.2172 80.3911C42.4324 80.3911 36.9126 85.9109 36.9126 92.6957C36.9126 99.4804 42.4324 105 49.2172 105C56.0019 105 61.5218 99.4804 61.5218 92.6957C61.5218 92.3762 61.5218 55.0322 61.5218 55.0322L98.8457 44.4687V69.7419C97.0342 68.6913 94.9338 68.0865 92.6934 68.0865C85.9086 68.0865 80.3888 73.6064 80.3888 80.3911C80.3888 87.1759 85.9086 92.6957 92.6934 92.6957C99.4781 92.6957 104.998 87.1759 104.998 80.3911C104.998 80.1182 104.998 28.0966 104.998 28.0966C104.998 27.1328 104.546 26.2245 103.777 25.6431ZM49.2174 98.848C45.825 98.848 43.0651 96.0881 43.0651 92.6957C43.0651 89.3033 45.825 86.5434 49.2174 86.5434C52.6098 86.5434 55.3697 89.3033 55.3697 92.6957C55.3697 96.0881 52.6098 98.848 49.2174 98.848ZM92.6936 86.5434C89.3012 86.5434 86.5413 83.7835 86.5413 80.3911C86.5413 76.9987 89.3012 74.2388 92.6936 74.2388C96.086 74.2388 98.8459 76.9987 98.8459 80.3911C98.8459 83.7835 96.086 86.5434 92.6936 86.5434ZM98.8459 38.075L61.522 48.6383V42.7276L98.8459 32.1643V38.075Z" fill="#E0E0E0"/>
<path d="M42.9233 21.8367C36.0984 16.8336 31.0984 11.8786 27.6379 6.68787L24.0924 1.37003C23.3404 0.242112 21.9387 -0.26053 20.6416 0.132191C19.3442 0.525117 18.4569 1.72092 18.4569 3.07647V51.2842C16.6454 50.2336 14.545 49.6288 12.3046 49.6288C5.51984 49.6288 0 55.1487 0 61.9334C0 68.7181 5.51984 74.238 12.3046 74.238C19.0893 74.238 24.6092 68.7181 24.6092 61.9334V13.0007C28.2856 17.7378 33.1176 22.2772 39.2859 26.7989C41.6529 28.5338 43.066 31.3186 43.066 34.2483C43.066 39.3368 38.9262 43.4767 33.8376 43.4767C32.1388 43.4767 30.7615 44.854 30.7615 46.5529C30.7615 48.2517 32.1388 49.629 33.8376 49.629C42.3185 49.6288 49.2183 42.729 49.2183 34.2481C49.2183 29.3658 46.8649 24.726 42.9233 21.8367ZM12.3046 68.0857C8.91221 68.0857 6.15229 65.3258 6.15229 61.9334C6.15229 58.541 8.91221 55.7811 12.3046 55.7811C15.697 55.7811 18.4569 58.541 18.4569 61.9334C18.4569 65.3258 15.697 68.0857 12.3046 68.0857Z" fill="#E0E0E0"/>
</g>
</svg>
