<svg width="28" height="22" viewBox="0 0 28 22" fill="none" xmlns="http://www.w3.org/2000/svg">
<path d="M22.7017 7.08727C21.4424 2.07065 16.3548 -0.975253 11.3382 0.284037C7.41783 1.26817 4.5712 4.65649 4.2779 8.6878C1.49428 9.14685 -0.390189 11.7755 0.068862 14.5592C0.476937 17.0338 2.62123 18.8461 5.12928 18.8362H9.38615V17.1334H5.12928C3.24848 17.1334 1.72378 15.6087 1.72378 13.7279C1.72378 11.8472 3.24848 10.3224 5.12928 10.3224C5.5995 10.3224 5.98065 9.94129 5.98065 9.47107C5.97639 5.23925 9.40355 1.80523 13.6354 1.80103C17.2986 1.79736 20.4521 4.38713 21.1607 7.98116C21.2306 8.34002 21.5219 8.61416 21.8843 8.66226C24.2119 8.99371 25.83 11.1492 25.4986 13.4767C25.201 15.5668 23.4165 17.1229 21.3054 17.1334H17.8999V18.8362H21.3054C24.5968 18.8262 27.2569 16.1499 27.2469 12.8585C27.2386 10.1187 25.3633 7.73745 22.7017 7.08727Z" fill="black"/>
<path d="M13.0383 10.5689L9.63281 13.9744L10.8333 15.1748L12.7914 13.2252V21.3899H14.4942V13.2252L16.4438 15.1748L17.6443 13.9744L14.2388 10.5689C13.9067 10.2388 13.3704 10.2388 13.0383 10.5689Z" fill="black"/>
</svg>
